<mxfile host="app.diagrams.net" modified="2023-12-04T21:57:52.621Z" agent="Mozilla/5.0 (Windows NT 10.0; Win64; x64) AppleWebKit/537.36 (KHTML, like Gecko) Chrome/119.0.0.0 Safari/537.36" etag="JAWeXwvr3YyISzOb3Qzv" version="22.1.5" type="github">
  <diagram name="Page-1" id="3oRTwqISSOKy9MOM9xWJ">
    <mxGraphModel dx="763" dy="668" grid="1" gridSize="10" guides="1" tooltips="1" connect="1" arrows="1" fold="1" page="1" pageScale="1" pageWidth="850" pageHeight="1100" math="0" shadow="0">
      <root>
        <mxCell id="0" />
        <mxCell id="1" parent="0" />
        <mxCell id="lcPYuuhz_WvnnKhGVCEH-200" value="Preparation" style="swimlane;horizontal=0;whiteSpace=wrap;html=1;fontSize=14;" vertex="1" parent="1">
          <mxGeometry x="950" y="275" width="980" height="170" as="geometry" />
        </mxCell>
        <mxCell id="lcPYuuhz_WvnnKhGVCEH-199" value="" style="edgeStyle=orthogonalEdgeStyle;rounded=0;orthogonalLoop=1;jettySize=auto;html=1;fontSize=14;" edge="1" parent="lcPYuuhz_WvnnKhGVCEH-200" source="lcPYuuhz_WvnnKhGVCEH-197">
          <mxGeometry relative="1" as="geometry">
            <mxPoint x="250.00000000000045" y="80" as="targetPoint" />
          </mxGeometry>
        </mxCell>
        <mxCell id="lcPYuuhz_WvnnKhGVCEH-197" value="Start" style="rounded=1;whiteSpace=wrap;html=1;fillColor=#ffe6cc;strokeColor=#d79b00;fontSize=14;" vertex="1" parent="lcPYuuhz_WvnnKhGVCEH-200">
          <mxGeometry x="50" y="50" width="120" height="60" as="geometry" />
        </mxCell>
        <mxCell id="lcPYuuhz_WvnnKhGVCEH-205" value="" style="edgeStyle=orthogonalEdgeStyle;rounded=0;orthogonalLoop=1;jettySize=auto;html=1;fontSize=14;" edge="1" parent="lcPYuuhz_WvnnKhGVCEH-200" source="lcPYuuhz_WvnnKhGVCEH-203" target="lcPYuuhz_WvnnKhGVCEH-204">
          <mxGeometry relative="1" as="geometry" />
        </mxCell>
        <mxCell id="lcPYuuhz_WvnnKhGVCEH-203" value="Review" style="rounded=0;whiteSpace=wrap;html=1;fontSize=14;" vertex="1" parent="lcPYuuhz_WvnnKhGVCEH-200">
          <mxGeometry x="250" y="50" width="120" height="60" as="geometry" />
        </mxCell>
        <mxCell id="lcPYuuhz_WvnnKhGVCEH-207" value="" style="edgeStyle=orthogonalEdgeStyle;rounded=0;orthogonalLoop=1;jettySize=auto;html=1;fontSize=14;" edge="1" parent="lcPYuuhz_WvnnKhGVCEH-200" source="lcPYuuhz_WvnnKhGVCEH-204" target="lcPYuuhz_WvnnKhGVCEH-206">
          <mxGeometry relative="1" as="geometry" />
        </mxCell>
        <mxCell id="lcPYuuhz_WvnnKhGVCEH-204" value="Updates about Latest&lt;br style=&quot;font-size: 14px;&quot;&gt;Vulnerabilities and risks" style="whiteSpace=wrap;html=1;rounded=0;fontSize=14;" vertex="1" parent="lcPYuuhz_WvnnKhGVCEH-200">
          <mxGeometry x="450" y="50" width="140" height="60" as="geometry" />
        </mxCell>
        <mxCell id="lcPYuuhz_WvnnKhGVCEH-206" value="Train employees on AI related risk mitigations" style="whiteSpace=wrap;html=1;rounded=0;fontSize=14;" vertex="1" parent="lcPYuuhz_WvnnKhGVCEH-200">
          <mxGeometry x="650" y="50" width="120" height="60" as="geometry" />
        </mxCell>
        <mxCell id="lcPYuuhz_WvnnKhGVCEH-217" value="Detection and analysis" style="swimlane;horizontal=0;whiteSpace=wrap;html=1;fontSize=14;" vertex="1" parent="1">
          <mxGeometry x="950" y="445" width="980" height="575" as="geometry" />
        </mxCell>
        <mxCell id="lcPYuuhz_WvnnKhGVCEH-228" value="" style="edgeStyle=orthogonalEdgeStyle;rounded=0;orthogonalLoop=1;jettySize=auto;html=1;fontSize=14;" edge="1" parent="lcPYuuhz_WvnnKhGVCEH-217" source="lcPYuuhz_WvnnKhGVCEH-215" target="lcPYuuhz_WvnnKhGVCEH-227">
          <mxGeometry relative="1" as="geometry" />
        </mxCell>
        <mxCell id="lcPYuuhz_WvnnKhGVCEH-215" value="Adversarial attack on AI System" style="rounded=1;whiteSpace=wrap;html=1;fillColor=#f8cecc;strokeColor=#b85450;fontSize=14;" vertex="1" parent="lcPYuuhz_WvnnKhGVCEH-217">
          <mxGeometry x="650" y="50" width="120" height="60" as="geometry" />
        </mxCell>
        <mxCell id="lcPYuuhz_WvnnKhGVCEH-232" value="" style="edgeStyle=orthogonalEdgeStyle;rounded=0;orthogonalLoop=1;jettySize=auto;html=1;fontSize=14;" edge="1" parent="lcPYuuhz_WvnnKhGVCEH-217" source="lcPYuuhz_WvnnKhGVCEH-227" target="lcPYuuhz_WvnnKhGVCEH-231">
          <mxGeometry relative="1" as="geometry" />
        </mxCell>
        <mxCell id="lcPYuuhz_WvnnKhGVCEH-227" value="Identify suspicious Loan approvals" style="rounded=0;whiteSpace=wrap;html=1;fontSize=14;" vertex="1" parent="lcPYuuhz_WvnnKhGVCEH-217">
          <mxGeometry x="450" y="50" width="120" height="60" as="geometry" />
        </mxCell>
        <mxCell id="lcPYuuhz_WvnnKhGVCEH-234" value="" style="edgeStyle=orthogonalEdgeStyle;rounded=0;orthogonalLoop=1;jettySize=auto;html=1;fontSize=14;" edge="1" parent="lcPYuuhz_WvnnKhGVCEH-217" source="lcPYuuhz_WvnnKhGVCEH-231" target="lcPYuuhz_WvnnKhGVCEH-233">
          <mxGeometry relative="1" as="geometry" />
        </mxCell>
        <mxCell id="lcPYuuhz_WvnnKhGVCEH-231" value="Identify compromised Security and AI module" style="whiteSpace=wrap;html=1;rounded=0;fontSize=14;" vertex="1" parent="lcPYuuhz_WvnnKhGVCEH-217">
          <mxGeometry x="250" y="50" width="140" height="60" as="geometry" />
        </mxCell>
        <mxCell id="lcPYuuhz_WvnnKhGVCEH-236" value="" style="edgeStyle=orthogonalEdgeStyle;rounded=0;orthogonalLoop=1;jettySize=auto;html=1;fontSize=14;" edge="1" parent="lcPYuuhz_WvnnKhGVCEH-217" source="lcPYuuhz_WvnnKhGVCEH-233" target="lcPYuuhz_WvnnKhGVCEH-235">
          <mxGeometry relative="1" as="geometry" />
        </mxCell>
        <mxCell id="lcPYuuhz_WvnnKhGVCEH-233" value="Identify compromised Security and AI module" style="whiteSpace=wrap;html=1;rounded=0;fontSize=14;" vertex="1" parent="lcPYuuhz_WvnnKhGVCEH-217">
          <mxGeometry x="50" y="50" width="120" height="60" as="geometry" />
        </mxCell>
        <mxCell id="lcPYuuhz_WvnnKhGVCEH-238" value="" style="edgeStyle=orthogonalEdgeStyle;rounded=0;orthogonalLoop=1;jettySize=auto;html=1;fontSize=14;" edge="1" parent="lcPYuuhz_WvnnKhGVCEH-217" source="lcPYuuhz_WvnnKhGVCEH-235" target="lcPYuuhz_WvnnKhGVCEH-237">
          <mxGeometry relative="1" as="geometry" />
        </mxCell>
        <mxCell id="lcPYuuhz_WvnnKhGVCEH-239" value="No" style="edgeLabel;html=1;align=center;verticalAlign=middle;resizable=0;points=[];fontSize=14;" vertex="1" connectable="0" parent="lcPYuuhz_WvnnKhGVCEH-238">
          <mxGeometry x="-0.3652" y="1" relative="1" as="geometry">
            <mxPoint as="offset" />
          </mxGeometry>
        </mxCell>
        <mxCell id="lcPYuuhz_WvnnKhGVCEH-241" value="" style="edgeStyle=orthogonalEdgeStyle;rounded=0;orthogonalLoop=1;jettySize=auto;html=1;fontSize=14;" edge="1" parent="lcPYuuhz_WvnnKhGVCEH-217" source="lcPYuuhz_WvnnKhGVCEH-235" target="lcPYuuhz_WvnnKhGVCEH-240">
          <mxGeometry relative="1" as="geometry" />
        </mxCell>
        <mxCell id="lcPYuuhz_WvnnKhGVCEH-242" value="Yes" style="edgeLabel;html=1;align=center;verticalAlign=middle;resizable=0;points=[];fontSize=14;" vertex="1" connectable="0" parent="lcPYuuhz_WvnnKhGVCEH-241">
          <mxGeometry x="-0.5158" y="-1" relative="1" as="geometry">
            <mxPoint as="offset" />
          </mxGeometry>
        </mxCell>
        <mxCell id="lcPYuuhz_WvnnKhGVCEH-235" value="Suspicious activity detected?" style="rhombus;whiteSpace=wrap;html=1;rounded=0;fontSize=14;" vertex="1" parent="lcPYuuhz_WvnnKhGVCEH-217">
          <mxGeometry x="38.13" y="150" width="143.75" height="150" as="geometry" />
        </mxCell>
        <mxCell id="lcPYuuhz_WvnnKhGVCEH-248" value="" style="edgeStyle=orthogonalEdgeStyle;rounded=0;orthogonalLoop=1;jettySize=auto;html=1;fontSize=14;" edge="1" parent="lcPYuuhz_WvnnKhGVCEH-217" source="lcPYuuhz_WvnnKhGVCEH-237" target="lcPYuuhz_WvnnKhGVCEH-247">
          <mxGeometry relative="1" as="geometry" />
        </mxCell>
        <mxCell id="lcPYuuhz_WvnnKhGVCEH-237" value="Check firewall,DHCP, HIDS logs, system files, applications&#39; behavior," style="whiteSpace=wrap;html=1;rounded=0;fontSize=14;" vertex="1" parent="lcPYuuhz_WvnnKhGVCEH-217">
          <mxGeometry x="273.76" y="187.5" width="146.25" height="75" as="geometry" />
        </mxCell>
        <mxCell id="lcPYuuhz_WvnnKhGVCEH-244" value="" style="edgeStyle=orthogonalEdgeStyle;rounded=0;orthogonalLoop=1;jettySize=auto;html=1;fontSize=14;" edge="1" parent="lcPYuuhz_WvnnKhGVCEH-217" source="lcPYuuhz_WvnnKhGVCEH-240" target="lcPYuuhz_WvnnKhGVCEH-243">
          <mxGeometry relative="1" as="geometry" />
        </mxCell>
        <mxCell id="lcPYuuhz_WvnnKhGVCEH-246" value="" style="edgeStyle=orthogonalEdgeStyle;rounded=0;orthogonalLoop=1;jettySize=auto;html=1;fontSize=14;" edge="1" parent="lcPYuuhz_WvnnKhGVCEH-217" source="lcPYuuhz_WvnnKhGVCEH-240" target="lcPYuuhz_WvnnKhGVCEH-245">
          <mxGeometry relative="1" as="geometry" />
        </mxCell>
        <mxCell id="lcPYuuhz_WvnnKhGVCEH-240" value="Isolate the system" style="whiteSpace=wrap;html=1;rounded=0;fontSize=14;" vertex="1" parent="lcPYuuhz_WvnnKhGVCEH-217">
          <mxGeometry x="49.995" y="365" width="120" height="60" as="geometry" />
        </mxCell>
        <mxCell id="lcPYuuhz_WvnnKhGVCEH-250" value="" style="edgeStyle=orthogonalEdgeStyle;rounded=0;orthogonalLoop=1;jettySize=auto;html=1;fontSize=14;" edge="1" parent="lcPYuuhz_WvnnKhGVCEH-217" source="lcPYuuhz_WvnnKhGVCEH-243" target="lcPYuuhz_WvnnKhGVCEH-249">
          <mxGeometry relative="1" as="geometry" />
        </mxCell>
        <mxCell id="lcPYuuhz_WvnnKhGVCEH-243" value="Collect and preserve data" style="whiteSpace=wrap;html=1;rounded=0;fontSize=14;" vertex="1" parent="lcPYuuhz_WvnnKhGVCEH-217">
          <mxGeometry x="249.995" y="365" width="120" height="60" as="geometry" />
        </mxCell>
        <mxCell id="lcPYuuhz_WvnnKhGVCEH-245" value="3rd party analysis support if needed" style="whiteSpace=wrap;html=1;rounded=0;fontSize=14;" vertex="1" parent="lcPYuuhz_WvnnKhGVCEH-217">
          <mxGeometry x="50.005" y="485" width="120" height="60" as="geometry" />
        </mxCell>
        <mxCell id="lcPYuuhz_WvnnKhGVCEH-254" value="" style="edgeStyle=orthogonalEdgeStyle;rounded=0;orthogonalLoop=1;jettySize=auto;html=1;fontSize=14;" edge="1" parent="lcPYuuhz_WvnnKhGVCEH-217" source="lcPYuuhz_WvnnKhGVCEH-247" target="lcPYuuhz_WvnnKhGVCEH-253">
          <mxGeometry relative="1" as="geometry" />
        </mxCell>
        <mxCell id="lcPYuuhz_WvnnKhGVCEH-247" value="Use tools like SIEMS for Insiddent respose plan and and incident solution" style="whiteSpace=wrap;html=1;rounded=0;fontSize=14;" vertex="1" parent="lcPYuuhz_WvnnKhGVCEH-217">
          <mxGeometry x="473.76" y="187.5" width="156.25" height="75" as="geometry" />
        </mxCell>
        <mxCell id="lcPYuuhz_WvnnKhGVCEH-252" value="" style="edgeStyle=orthogonalEdgeStyle;rounded=0;orthogonalLoop=1;jettySize=auto;html=1;fontSize=14;" edge="1" parent="lcPYuuhz_WvnnKhGVCEH-217" source="lcPYuuhz_WvnnKhGVCEH-249" target="lcPYuuhz_WvnnKhGVCEH-251">
          <mxGeometry relative="1" as="geometry" />
        </mxCell>
        <mxCell id="lcPYuuhz_WvnnKhGVCEH-249" value="Analyze the data that was manipulated" style="whiteSpace=wrap;html=1;rounded=0;fontSize=14;" vertex="1" parent="lcPYuuhz_WvnnKhGVCEH-217">
          <mxGeometry x="449.995" y="365" width="120" height="60" as="geometry" />
        </mxCell>
        <mxCell id="lcPYuuhz_WvnnKhGVCEH-251" value="Analyze the Module impacted and patch requirement" style="whiteSpace=wrap;html=1;rounded=0;fontSize=14;" vertex="1" parent="lcPYuuhz_WvnnKhGVCEH-217">
          <mxGeometry x="645" y="362.5" width="130.01" height="65" as="geometry" />
        </mxCell>
        <mxCell id="lcPYuuhz_WvnnKhGVCEH-255" style="edgeStyle=orthogonalEdgeStyle;rounded=0;orthogonalLoop=1;jettySize=auto;html=1;entryX=0.5;entryY=0;entryDx=0;entryDy=0;exitX=0.5;exitY=1;exitDx=0;exitDy=0;fontSize=14;" edge="1" parent="lcPYuuhz_WvnnKhGVCEH-217" source="lcPYuuhz_WvnnKhGVCEH-253" target="lcPYuuhz_WvnnKhGVCEH-240">
          <mxGeometry relative="1" as="geometry">
            <mxPoint x="783.7650000000001" y="305" as="sourcePoint" />
            <mxPoint x="200.00499999999988" y="445" as="targetPoint" />
            <Array as="points">
              <mxPoint x="737" y="335" />
              <mxPoint x="110" y="335" />
            </Array>
          </mxGeometry>
        </mxCell>
        <mxCell id="lcPYuuhz_WvnnKhGVCEH-256" value="Yes" style="edgeLabel;html=1;align=center;verticalAlign=middle;resizable=0;points=[];fontSize=14;" vertex="1" connectable="0" parent="lcPYuuhz_WvnnKhGVCEH-255">
          <mxGeometry x="-0.3012" y="1" relative="1" as="geometry">
            <mxPoint x="79" as="offset" />
          </mxGeometry>
        </mxCell>
        <mxCell id="lcPYuuhz_WvnnKhGVCEH-258" value="" style="edgeStyle=orthogonalEdgeStyle;rounded=0;orthogonalLoop=1;jettySize=auto;html=1;fontSize=14;" edge="1" parent="lcPYuuhz_WvnnKhGVCEH-217" source="lcPYuuhz_WvnnKhGVCEH-253" target="lcPYuuhz_WvnnKhGVCEH-257">
          <mxGeometry relative="1" as="geometry" />
        </mxCell>
        <mxCell id="lcPYuuhz_WvnnKhGVCEH-260" value="No" style="edgeLabel;html=1;align=center;verticalAlign=middle;resizable=0;points=[];fontSize=14;" vertex="1" connectable="0" parent="lcPYuuhz_WvnnKhGVCEH-258">
          <mxGeometry x="-0.4445" y="-1" relative="1" as="geometry">
            <mxPoint as="offset" />
          </mxGeometry>
        </mxCell>
        <mxCell id="lcPYuuhz_WvnnKhGVCEH-253" value="Check for anamolies" style="rhombus;whiteSpace=wrap;html=1;rounded=0;fontSize=14;" vertex="1" parent="lcPYuuhz_WvnnKhGVCEH-217">
          <mxGeometry x="690" y="177.5" width="95" height="95" as="geometry" />
        </mxCell>
        <mxCell id="lcPYuuhz_WvnnKhGVCEH-303" style="edgeStyle=orthogonalEdgeStyle;rounded=0;orthogonalLoop=1;jettySize=auto;html=1;exitX=0.5;exitY=0;exitDx=0;exitDy=0;entryX=0.5;entryY=0;entryDx=0;entryDy=0;fontSize=14;" edge="1" parent="lcPYuuhz_WvnnKhGVCEH-217" source="lcPYuuhz_WvnnKhGVCEH-257" target="lcPYuuhz_WvnnKhGVCEH-253">
          <mxGeometry relative="1" as="geometry">
            <Array as="points">
              <mxPoint x="894" y="135" />
              <mxPoint x="738" y="135" />
            </Array>
          </mxGeometry>
        </mxCell>
        <mxCell id="lcPYuuhz_WvnnKhGVCEH-257" value="Monitor for anamolies" style="whiteSpace=wrap;html=1;rounded=0;fontSize=14;" vertex="1" parent="lcPYuuhz_WvnnKhGVCEH-217">
          <mxGeometry x="833.755" y="195" width="120" height="60" as="geometry" />
        </mxCell>
        <mxCell id="lcPYuuhz_WvnnKhGVCEH-216" style="edgeStyle=orthogonalEdgeStyle;rounded=0;orthogonalLoop=1;jettySize=auto;html=1;exitX=0.5;exitY=1;exitDx=0;exitDy=0;fontSize=14;" edge="1" parent="1" source="lcPYuuhz_WvnnKhGVCEH-206" target="lcPYuuhz_WvnnKhGVCEH-215">
          <mxGeometry relative="1" as="geometry" />
        </mxCell>
        <mxCell id="lcPYuuhz_WvnnKhGVCEH-261" value="Containment, Eradication and Recovery" style="swimlane;horizontal=0;whiteSpace=wrap;html=1;fontSize=14;" vertex="1" parent="1">
          <mxGeometry x="950" y="1020" width="980" height="460" as="geometry" />
        </mxCell>
        <mxCell id="lcPYuuhz_WvnnKhGVCEH-266" value="" style="edgeStyle=orthogonalEdgeStyle;rounded=0;orthogonalLoop=1;jettySize=auto;html=1;fontSize=14;" edge="1" parent="lcPYuuhz_WvnnKhGVCEH-261" source="lcPYuuhz_WvnnKhGVCEH-263" target="lcPYuuhz_WvnnKhGVCEH-265">
          <mxGeometry relative="1" as="geometry" />
        </mxCell>
        <mxCell id="lcPYuuhz_WvnnKhGVCEH-269" value="No" style="edgeLabel;html=1;align=center;verticalAlign=middle;resizable=0;points=[];fontSize=14;" vertex="1" connectable="0" parent="lcPYuuhz_WvnnKhGVCEH-266">
          <mxGeometry x="-0.2493" y="1" relative="1" as="geometry">
            <mxPoint as="offset" />
          </mxGeometry>
        </mxCell>
        <mxCell id="lcPYuuhz_WvnnKhGVCEH-271" value="" style="edgeStyle=orthogonalEdgeStyle;rounded=0;orthogonalLoop=1;jettySize=auto;html=1;fontSize=14;" edge="1" parent="lcPYuuhz_WvnnKhGVCEH-261" source="lcPYuuhz_WvnnKhGVCEH-263" target="lcPYuuhz_WvnnKhGVCEH-270">
          <mxGeometry relative="1" as="geometry" />
        </mxCell>
        <mxCell id="lcPYuuhz_WvnnKhGVCEH-272" value="Yes" style="edgeLabel;html=1;align=center;verticalAlign=middle;resizable=0;points=[];fontSize=14;" vertex="1" connectable="0" parent="lcPYuuhz_WvnnKhGVCEH-271">
          <mxGeometry x="0.0358" y="-1" relative="1" as="geometry">
            <mxPoint as="offset" />
          </mxGeometry>
        </mxCell>
        <mxCell id="lcPYuuhz_WvnnKhGVCEH-263" value="Can be patched" style="rhombus;whiteSpace=wrap;html=1;rounded=0;fontSize=14;" vertex="1" parent="lcPYuuhz_WvnnKhGVCEH-261">
          <mxGeometry x="669.995" y="80" width="80" height="80" as="geometry" />
        </mxCell>
        <mxCell id="lcPYuuhz_WvnnKhGVCEH-268" value="" style="edgeStyle=orthogonalEdgeStyle;rounded=0;orthogonalLoop=1;jettySize=auto;html=1;fontSize=14;" edge="1" parent="lcPYuuhz_WvnnKhGVCEH-261" source="lcPYuuhz_WvnnKhGVCEH-265" target="lcPYuuhz_WvnnKhGVCEH-267">
          <mxGeometry relative="1" as="geometry" />
        </mxCell>
        <mxCell id="lcPYuuhz_WvnnKhGVCEH-265" value="Mitigate" style="whiteSpace=wrap;html=1;rounded=0;fontSize=14;" vertex="1" parent="lcPYuuhz_WvnnKhGVCEH-261">
          <mxGeometry x="809.995" y="90" width="120" height="60" as="geometry" />
        </mxCell>
        <mxCell id="lcPYuuhz_WvnnKhGVCEH-267" value="Inform incident response team and document current status, evidences, process done" style="whiteSpace=wrap;html=1;rounded=0;fontSize=14;" vertex="1" parent="lcPYuuhz_WvnnKhGVCEH-261">
          <mxGeometry x="799.99" y="230" width="140.01" height="100" as="geometry" />
        </mxCell>
        <mxCell id="lcPYuuhz_WvnnKhGVCEH-274" value="" style="edgeStyle=orthogonalEdgeStyle;rounded=0;orthogonalLoop=1;jettySize=auto;html=1;fontSize=14;" edge="1" parent="lcPYuuhz_WvnnKhGVCEH-261" source="lcPYuuhz_WvnnKhGVCEH-270" target="lcPYuuhz_WvnnKhGVCEH-273">
          <mxGeometry relative="1" as="geometry" />
        </mxCell>
        <mxCell id="lcPYuuhz_WvnnKhGVCEH-270" value="Communicate with IR Team for the patch" style="whiteSpace=wrap;html=1;rounded=0;fontSize=14;" vertex="1" parent="lcPYuuhz_WvnnKhGVCEH-261">
          <mxGeometry x="649.995" y="250" width="120" height="60" as="geometry" />
        </mxCell>
        <mxCell id="lcPYuuhz_WvnnKhGVCEH-276" value="" style="edgeStyle=orthogonalEdgeStyle;rounded=0;orthogonalLoop=1;jettySize=auto;html=1;fontSize=14;" edge="1" parent="lcPYuuhz_WvnnKhGVCEH-261" source="lcPYuuhz_WvnnKhGVCEH-273" target="lcPYuuhz_WvnnKhGVCEH-275">
          <mxGeometry relative="1" as="geometry" />
        </mxCell>
        <mxCell id="lcPYuuhz_WvnnKhGVCEH-277" value="No" style="edgeLabel;html=1;align=center;verticalAlign=middle;resizable=0;points=[];fontSize=14;" vertex="1" connectable="0" parent="lcPYuuhz_WvnnKhGVCEH-276">
          <mxGeometry x="-0.2073" y="1" relative="1" as="geometry">
            <mxPoint as="offset" />
          </mxGeometry>
        </mxCell>
        <mxCell id="lcPYuuhz_WvnnKhGVCEH-279" value="" style="edgeStyle=orthogonalEdgeStyle;rounded=0;orthogonalLoop=1;jettySize=auto;html=1;fontSize=14;" edge="1" parent="lcPYuuhz_WvnnKhGVCEH-261" source="lcPYuuhz_WvnnKhGVCEH-273" target="lcPYuuhz_WvnnKhGVCEH-278">
          <mxGeometry relative="1" as="geometry" />
        </mxCell>
        <mxCell id="lcPYuuhz_WvnnKhGVCEH-280" value="Yes" style="edgeLabel;html=1;align=center;verticalAlign=middle;resizable=0;points=[];fontSize=14;" vertex="1" connectable="0" parent="lcPYuuhz_WvnnKhGVCEH-279">
          <mxGeometry x="-0.3138" relative="1" as="geometry">
            <mxPoint as="offset" />
          </mxGeometry>
        </mxCell>
        <mxCell id="lcPYuuhz_WvnnKhGVCEH-273" value="Is there any Data loss?" style="rhombus;whiteSpace=wrap;html=1;rounded=0;fontSize=14;" vertex="1" parent="lcPYuuhz_WvnnKhGVCEH-261">
          <mxGeometry x="659.99" y="345" width="100" height="100" as="geometry" />
        </mxCell>
        <mxCell id="lcPYuuhz_WvnnKhGVCEH-282" value="" style="edgeStyle=orthogonalEdgeStyle;rounded=0;orthogonalLoop=1;jettySize=auto;html=1;fontSize=14;" edge="1" parent="lcPYuuhz_WvnnKhGVCEH-261" source="lcPYuuhz_WvnnKhGVCEH-275" target="lcPYuuhz_WvnnKhGVCEH-281">
          <mxGeometry relative="1" as="geometry" />
        </mxCell>
        <mxCell id="lcPYuuhz_WvnnKhGVCEH-275" value="Eradicate the AI module impacted" style="whiteSpace=wrap;html=1;rounded=0;fontSize=14;" vertex="1" parent="lcPYuuhz_WvnnKhGVCEH-261">
          <mxGeometry x="479.99" y="365" width="120" height="60" as="geometry" />
        </mxCell>
        <mxCell id="lcPYuuhz_WvnnKhGVCEH-278" value="Apply Data loss Playbook procedure" style="whiteSpace=wrap;html=1;rounded=0;fontSize=14;" vertex="1" parent="lcPYuuhz_WvnnKhGVCEH-261">
          <mxGeometry x="819.99" y="365" width="120" height="60" as="geometry" />
        </mxCell>
        <mxCell id="lcPYuuhz_WvnnKhGVCEH-281" value="Recover all the AI system with updated modules and retraining" style="whiteSpace=wrap;html=1;rounded=0;fontSize=14;" vertex="1" parent="lcPYuuhz_WvnnKhGVCEH-261">
          <mxGeometry x="274.98" y="357.5" width="130.01" height="75" as="geometry" />
        </mxCell>
        <mxCell id="lcPYuuhz_WvnnKhGVCEH-264" value="" style="edgeStyle=orthogonalEdgeStyle;rounded=0;orthogonalLoop=1;jettySize=auto;html=1;fontSize=14;" edge="1" parent="1" source="lcPYuuhz_WvnnKhGVCEH-251" target="lcPYuuhz_WvnnKhGVCEH-263">
          <mxGeometry relative="1" as="geometry" />
        </mxCell>
        <mxCell id="lcPYuuhz_WvnnKhGVCEH-262" style="edgeStyle=orthogonalEdgeStyle;rounded=0;orthogonalLoop=1;jettySize=auto;html=1;exitX=0;exitY=0;exitDx=0;exitDy=0;entryX=0;entryY=1;entryDx=0;entryDy=0;fontSize=14;" edge="1" parent="1" source="lcPYuuhz_WvnnKhGVCEH-261" target="lcPYuuhz_WvnnKhGVCEH-217">
          <mxGeometry relative="1" as="geometry" />
        </mxCell>
        <mxCell id="lcPYuuhz_WvnnKhGVCEH-283" value="Post Incident Analysis and Reporting&amp;nbsp;&lt;span id=&quot;docs-internal-guid-a91d0a9c-7fff-19c1-0a09-d55a67475867&quot; style=&quot;font-weight: normal; font-size: 14px;&quot;&gt;&lt;/span&gt;&lt;span id=&quot;docs-internal-guid-a91d0a9c-7fff-19c1-0a09-d55a67475867&quot; style=&quot;font-weight: normal; font-size: 14px;&quot;&gt;&lt;/span&gt;" style="swimlane;horizontal=0;whiteSpace=wrap;html=1;fontSize=14;" vertex="1" parent="1">
          <mxGeometry x="950" y="1480" width="980" height="310" as="geometry" />
        </mxCell>
        <mxCell id="lcPYuuhz_WvnnKhGVCEH-289" value="" style="edgeStyle=orthogonalEdgeStyle;rounded=0;orthogonalLoop=1;jettySize=auto;html=1;fontSize=14;" edge="1" parent="lcPYuuhz_WvnnKhGVCEH-283" source="lcPYuuhz_WvnnKhGVCEH-284" target="lcPYuuhz_WvnnKhGVCEH-288">
          <mxGeometry relative="1" as="geometry" />
        </mxCell>
        <mxCell id="lcPYuuhz_WvnnKhGVCEH-290" value="No" style="edgeLabel;html=1;align=center;verticalAlign=middle;resizable=0;points=[];fontSize=14;" vertex="1" connectable="0" parent="lcPYuuhz_WvnnKhGVCEH-289">
          <mxGeometry x="-0.2884" y="-2" relative="1" as="geometry">
            <mxPoint as="offset" />
          </mxGeometry>
        </mxCell>
        <mxCell id="lcPYuuhz_WvnnKhGVCEH-284" value="Retest for anamolies" style="rhombus;whiteSpace=wrap;html=1;rounded=0;fontSize=14;" vertex="1" parent="lcPYuuhz_WvnnKhGVCEH-283">
          <mxGeometry x="289.98" y="27.5" width="100.01" height="95" as="geometry" />
        </mxCell>
        <mxCell id="lcPYuuhz_WvnnKhGVCEH-292" value="" style="edgeStyle=orthogonalEdgeStyle;rounded=0;orthogonalLoop=1;jettySize=auto;html=1;fontSize=14;" edge="1" parent="lcPYuuhz_WvnnKhGVCEH-283" source="lcPYuuhz_WvnnKhGVCEH-288" target="lcPYuuhz_WvnnKhGVCEH-291">
          <mxGeometry relative="1" as="geometry" />
        </mxCell>
        <mxCell id="lcPYuuhz_WvnnKhGVCEH-288" value="Record all findings and remediation steps&lt;span id=&quot;docs-internal-guid-0aa636bb-7fff-c5f6-6cbc-05aaa12c4583&quot; style=&quot;font-size: 14px;&quot;&gt;&lt;/span&gt;" style="whiteSpace=wrap;html=1;rounded=0;fontSize=14;" vertex="1" parent="lcPYuuhz_WvnnKhGVCEH-283">
          <mxGeometry x="520" y="45" width="120" height="60" as="geometry" />
        </mxCell>
        <mxCell id="lcPYuuhz_WvnnKhGVCEH-291" value="Prepare Report according to laws and regulations" style="whiteSpace=wrap;html=1;rounded=0;fontSize=14;" vertex="1" parent="lcPYuuhz_WvnnKhGVCEH-283">
          <mxGeometry x="720" y="42.5" width="130" height="65" as="geometry" />
        </mxCell>
        <mxCell id="lcPYuuhz_WvnnKhGVCEH-295" value="" style="edgeStyle=orthogonalEdgeStyle;rounded=0;orthogonalLoop=1;jettySize=auto;html=1;fontSize=14;" edge="1" parent="lcPYuuhz_WvnnKhGVCEH-283" source="lcPYuuhz_WvnnKhGVCEH-291" target="lcPYuuhz_WvnnKhGVCEH-294">
          <mxGeometry relative="1" as="geometry" />
        </mxCell>
        <mxCell id="lcPYuuhz_WvnnKhGVCEH-297" value="" style="edgeStyle=orthogonalEdgeStyle;rounded=0;orthogonalLoop=1;jettySize=auto;html=1;fontSize=14;" edge="1" parent="lcPYuuhz_WvnnKhGVCEH-283" source="lcPYuuhz_WvnnKhGVCEH-294" target="lcPYuuhz_WvnnKhGVCEH-296">
          <mxGeometry relative="1" as="geometry" />
        </mxCell>
        <mxCell id="lcPYuuhz_WvnnKhGVCEH-294" value="Notify customers, regulators and stakeholders" style="whiteSpace=wrap;html=1;rounded=0;fontSize=14;" vertex="1" parent="lcPYuuhz_WvnnKhGVCEH-283">
          <mxGeometry x="725" y="210" width="120" height="60" as="geometry" />
        </mxCell>
        <mxCell id="lcPYuuhz_WvnnKhGVCEH-299" value="" style="edgeStyle=orthogonalEdgeStyle;rounded=0;orthogonalLoop=1;jettySize=auto;html=1;fontSize=14;" edge="1" parent="lcPYuuhz_WvnnKhGVCEH-283" source="lcPYuuhz_WvnnKhGVCEH-296" target="lcPYuuhz_WvnnKhGVCEH-298">
          <mxGeometry relative="1" as="geometry" />
        </mxCell>
        <mxCell id="lcPYuuhz_WvnnKhGVCEH-296" value="Coordinate Media with public relations and legal teams" style="whiteSpace=wrap;html=1;rounded=0;fontSize=14;" vertex="1" parent="lcPYuuhz_WvnnKhGVCEH-283">
          <mxGeometry x="545" y="210" width="120" height="60" as="geometry" />
        </mxCell>
        <mxCell id="lcPYuuhz_WvnnKhGVCEH-301" style="edgeStyle=orthogonalEdgeStyle;rounded=0;orthogonalLoop=1;jettySize=auto;html=1;entryX=1;entryY=0.5;entryDx=0;entryDy=0;fontSize=14;" edge="1" parent="lcPYuuhz_WvnnKhGVCEH-283" source="lcPYuuhz_WvnnKhGVCEH-298" target="lcPYuuhz_WvnnKhGVCEH-300">
          <mxGeometry relative="1" as="geometry" />
        </mxCell>
        <mxCell id="lcPYuuhz_WvnnKhGVCEH-298" value="Coordinate with all teams to retest the IR plan for continues improvement" style="whiteSpace=wrap;html=1;rounded=0;fontSize=14;" vertex="1" parent="lcPYuuhz_WvnnKhGVCEH-283">
          <mxGeometry x="310" y="200" width="145" height="80" as="geometry" />
        </mxCell>
        <mxCell id="lcPYuuhz_WvnnKhGVCEH-300" value="Close this incident" style="rounded=1;whiteSpace=wrap;html=1;fillColor=#d5e8d4;strokeColor=#82b366;fontSize=14;" vertex="1" parent="lcPYuuhz_WvnnKhGVCEH-283">
          <mxGeometry x="100" y="210" width="120" height="60" as="geometry" />
        </mxCell>
        <mxCell id="lcPYuuhz_WvnnKhGVCEH-285" value="" style="edgeStyle=orthogonalEdgeStyle;rounded=0;orthogonalLoop=1;jettySize=auto;html=1;fontSize=14;" edge="1" parent="1" source="lcPYuuhz_WvnnKhGVCEH-281" target="lcPYuuhz_WvnnKhGVCEH-284">
          <mxGeometry relative="1" as="geometry" />
        </mxCell>
        <mxCell id="lcPYuuhz_WvnnKhGVCEH-286" style="edgeStyle=orthogonalEdgeStyle;rounded=0;orthogonalLoop=1;jettySize=auto;html=1;fontSize=14;" edge="1" parent="1" source="lcPYuuhz_WvnnKhGVCEH-284" target="lcPYuuhz_WvnnKhGVCEH-245">
          <mxGeometry relative="1" as="geometry" />
        </mxCell>
        <mxCell id="lcPYuuhz_WvnnKhGVCEH-287" value="Yes" style="edgeLabel;html=1;align=center;verticalAlign=middle;resizable=0;points=[];fontSize=14;" vertex="1" connectable="0" parent="lcPYuuhz_WvnnKhGVCEH-286">
          <mxGeometry x="-0.8278" y="1" relative="1" as="geometry">
            <mxPoint x="-116" y="-286" as="offset" />
          </mxGeometry>
        </mxCell>
      </root>
    </mxGraphModel>
  </diagram>
</mxfile>
